<?xml version="1.0"?>
<svg width="744.09" height="680.4" xmlns="http://www.w3.org/2000/svg" xmlns:svg="http://www.w3.org/2000/svg">
 <g>
  <title>Layer 1</title>
  <g stroke="null" opacity="0.25" id="layer1">
   <path stroke="null" d="m1.09733,671.551025c0,-11.969482 20.590071,-114.829346 24.079201,-120.301147c1.243359,-1.947144 4.331699,-14.561523 6.863001,-28.030945c5.904949,-31.421906 16.792179,-65.181976 23.200527,-71.944733c2.754742,-2.907837 27.475471,-9.817841 54.9347,-15.357056c84.355545,-17.01651 121.527725,-30.124146 139.890335,-49.318176c8.748352,-9.148102 21.980652,-18.6828 29.404602,-21.188385c11.794098,-3.979797 13.496918,-6.512207 13.496918,-20.071503c0,-8.533569 -2.694031,-19.259216 -5.98819,-23.833282c-3.292999,-4.575226 -7.436768,-16.857025 -9.208069,-27.293915s-6.917908,-22.370331 -11.436554,-26.519714c-4.519836,-4.148224 -8.216766,-9.443634 -8.216766,-11.766068c0,-2.323532 -4.410782,-9.998703 -9.801147,-17.056976c-8.360703,-10.945892 -9.882401,-18.514282 -10.347855,-51.484451c-0.899536,-63.699944 4.741562,-92.847733 23.169235,-119.728111c26.019928,-37.946503 76.268768,-64.228033 123.024994,-64.349393c18.272125,-0.04718 25.949158,2.00334 33.621521,8.98073c5.794342,5.268451 19.410767,10.490821 32.630249,12.513261c26.302002,4.024639 49.95752,20.192888 61.442871,41.996981c5.773407,10.961586 7.617828,24.85347 7.623688,57.43264c0.003418,24.092796 1.9198,44.118294 4.361938,45.578941c11.846375,7.087494 0.795105,56.051773 -17.788086,78.818771c-6.987518,8.560501 -12.748199,18.997391 -12.800446,23.192825c-0.053375,4.194305 -3.973175,15.89859 -8.712402,26.008514c-15.74057,33.576935 -10.323486,66.808899 12.100525,74.246948c4.178589,1.386505 14.459137,11.060455 22.844208,21.497345c8.38623,10.437988 20.147827,20.050232 26.138367,21.36142c5.989258,1.310059 32.851929,10.735748 59.692505,20.946808c26.841736,10.2099 50.110779,18.56369 51.710205,18.56369c1.598328,0 11.399475,5.217865 21.777527,11.596405c18.54834,11.397583 28.000122,26.611847 28.000122,45.067719c0,4.961731 4.054382,16.539001 9.008362,25.72644c7.973022,14.785156 13.399353,43.138611 24.383301,127.39093l2.335327,17.922119l-741.446713,0l0,-10.611023l0.012,0.01239l0.00001,0l-0.00001,0z" id="path2396"/>
  </g>
 </g>
</svg>